<svg xmlns="http://www.w3.org/2000/svg" version="1.1" viewBox="-5.0 -10.0 110.0 135.0">
 <g>
  <path d="m50 48.438c-5.5 0-9.9688 4.4688-9.9688 9.9688s4.4688 9.9688 9.9688 9.9688 9.9688-4.4688 9.9688-9.9688-4.4688-9.9688-9.9688-9.9688zm0 16.812c-3.7812 0-6.8438-3.0625-6.8438-6.8438s3.0625-6.8438 6.8438-6.8438 6.8438 3.0625 6.8438 6.8438-3.0625 6.8438-6.8438 6.8438z"/>
  <path d="m50 72.25c-10.125 0-18.375 8.2344-18.375 18.375 0 0.85938 0.70312 1.5625 1.5625 1.5625s1.5625-0.70312 1.5625-1.5625c0-8.4062 6.8438-15.25 15.25-15.25s15.25 6.8438 15.25 15.25c0 0.85938 0.70312 1.5625 1.5625 1.5625s1.5625-0.70312 1.5625-1.5625c0-10.125-8.25-18.375-18.375-18.375z"/>
  <path d="m27.594 53.516c-4.7188 0-8.5625 3.8438-8.5625 8.5625s3.8438 8.5625 8.5625 8.5625 8.5625-3.8438 8.5625-8.5625-3.8438-8.5625-8.5625-8.5625zm0 14.016c-3 0-5.4375-2.4375-5.4375-5.4375s2.4375-5.4375 5.4375-5.4375 5.4375 2.4375 5.4375 5.4375-2.4375 5.4375-5.4375 5.4375z"/>
  <path d="m34.172 76.469c0.3125-0.79688-0.078125-1.7031-0.875-2.0312-1.8125-0.71875-3.7344-1.0781-5.7031-1.0781-8.5938 0-15.578 6.9844-15.578 15.578 0 0.85938 0.70312 1.5625 1.5625 1.5625s1.5625-0.70312 1.5625-1.5625c0-6.8594 5.5781-12.453 12.453-12.453 1.5781 0 3.1094 0.28125 4.5469 0.85938 0.8125 0.3125 1.7188-0.078125 2.0312-0.875z"/>
  <path d="m72.406 70.656c4.7188 0 8.5625-3.8438 8.5625-8.5625s-3.8438-8.5625-8.5625-8.5625-8.5625 3.8438-8.5625 8.5625 3.8438 8.5625 8.5625 8.5625zm0-14.016c3 0 5.4375 2.4375 5.4375 5.4375s-2.4375 5.4375-5.4375 5.4375-5.4375-2.4375-5.4375-5.4375 2.4375-5.4375 5.4375-5.4375z"/>
  <path d="m72.406 73.359c-1.9688 0-3.875 0.35938-5.7031 1.0781-0.79688 0.3125-1.2031 1.2188-0.875 2.0312 0.3125 0.79688 1.2188 1.2031 2.0312 0.875 1.4531-0.5625 2.9844-0.85938 4.5469-0.85938 6.8594 0 12.453 5.5781 12.453 12.453 0 0.85938 0.70312 1.5625 1.5625 1.5625s1.5625-0.70312 1.5625-1.5625c0-8.5938-6.9844-15.578-15.578-15.578z"/>
  <path d="m39.625 27.328c-0.35938 1.0938-0.0625 2.2656 0.75 3.0625l2.6562 2.5-0.64062 3.7031c-0.1875 1.125 0.26562 2.25 1.1875 2.9219 0.51562 0.375 1.1406 0.57812 1.75 0.57812 0.46875 0 0.95312-0.10938 1.3906-0.34375l3.2031-1.75 3.3281 1.75c1.0156 0.53125 2.2188 0.4375 3.1406-0.23438s1.375-1.7969 1.1875-2.9219l-0.67188-3.5938 2.6875-2.625c0.82812-0.79688 1.1094-1.9688 0.75-3.0625s-1.2812-1.8594-2.4062-2.0312l-3.625-0.46875-1.6719-3.375c-0.5-1.0312-1.5312-1.6719-2.6719-1.6719s-2.1719 0.64062-2.6719 1.6719l-1.5625 3.2969-3.7188 0.54688c-1.1406 0.17188-2.0625 0.9375-2.4062 2.0312zm6.5781 0.51562c0.96875-0.14062 1.8125-0.75 2.25-1.6406l1.5-3.2031 1.5781 3.2031c0.4375 0.875 1.2812 1.5 2.25 1.6406l3.4531 0.5-2.5 2.4375c-0.70312 0.6875-1.0312 1.6719-0.85938 2.6406l0.59375 3.4375-3.0781-1.625c-0.875-0.45312-1.9062-0.45312-2.7812 0l-3.0781 1.625 0.59375-3.4375c0.17188-0.96875-0.15625-1.9531-0.85938-2.6406l-2.5-2.4375 3.4531-0.5z"/>
  <path d="m20.766 42.266-0.46875 2.6875c-0.1875 1.125 0.26562 2.25 1.1875 2.9219 0.51562 0.375 1.1406 0.57812 1.75 0.57812 0.46875 0 0.95312-0.10938 1.3906-0.34375l2.2812-1.2656 2.4062 1.2656c1.0156 0.53125 2.2188 0.45312 3.1406-0.21875s1.3906-1.7969 1.1875-2.9219l-0.5-2.5625 1.9531-1.9062c0.8125-0.79688 1.1094-1.9688 0.75-3.0625s-1.2812-1.875-2.4062-2.0312l-2.5938-0.3125-1.2031-2.4375c-0.5-1.0312-1.5312-1.6562-2.6719-1.6562s-2.1719 0.64062-2.6719 1.6719l-1.0938 2.3594-2.6875 0.39062c-1.1406 0.17188-2.0625 0.9375-2.4062 2.0312-0.35938 1.0938-0.0625 2.2656 0.75 3.0625l1.9062 1.7812zm2.8906-4.1719c0.96875-0.14062 1.8125-0.75 2.25-1.6406l1.0469-2.2812 1.125 2.2812c0.4375 0.875 1.2812 1.5 2.25 1.6406l2.4219 0.34375-1.75 1.7031c-0.70312 0.6875-1.0312 1.6719-0.85938 2.6406l0.40625 2.4062-2.1562-1.1406c-0.875-0.45312-1.9062-0.45312-2.7812 0l-2.1562 1.1406 0.40625-2.4062c0.17188-0.96875-0.15625-1.9531-0.85938-2.6406l-1.75-1.7031 2.4219-0.34375z"/>
  <path d="m66.797 42.266-0.45312 2.6875c-0.1875 1.125 0.26562 2.25 1.1875 2.9219 0.51562 0.375 1.1406 0.57812 1.75 0.57812 0.46875 0 0.95312-0.10938 1.3906-0.34375l2.2812-1.2656 2.4062 1.2656c1.0156 0.53125 2.2188 0.45312 3.1406-0.23438 0.92188-0.67188 1.375-1.7969 1.1875-2.9219l-0.5-2.5625 1.9531-1.9062c0.8125-0.79688 1.1094-1.9688 0.75-3.0625s-1.2812-1.875-2.4062-2.0312l-2.5938-0.3125-1.2031-2.4375c-0.51562-1.0312-1.5312-1.6562-2.6719-1.6562s-2.1719 0.64062-2.6719 1.6719l-1.1094 2.3594-2.6875 0.39062c-1.1406 0.17188-2.0625 0.9375-2.4062 2.0312s-0.0625 2.2656 0.75 3.0625l1.9062 1.7812zm2.8906-4.1719c0.96875-0.14062 1.8125-0.75 2.25-1.6406l1.0781-2.1875 1.0781 2.1875c0.4375 0.875 1.2812 1.5 2.25 1.6406l2.4219 0.34375-1.75 1.7031c-0.70312 0.6875-1.0312 1.6719-0.85938 2.6406l0.40625 2.4062-2.1562-1.1406c-0.4375-0.23438-0.90625-0.34375-1.3906-0.34375s-0.95312 0.10938-1.3906 0.34375l-2.1562 1.1406 0.40625-2.4062c0.17188-0.96875-0.15625-1.9531-0.85938-2.6406l-1.75-1.7031z"/>
  <path d="m50 15.203c0.85938 0 1.5625-0.70312 1.5625-1.5625v-4.2656c0-0.85938-0.70312-1.5625-1.5625-1.5625s-1.5625 0.70312-1.5625 1.5625v4.2656c0 0.85938 0.70312 1.5625 1.5625 1.5625z"/>
  <path d="m39.828 18.516c0.3125 0.3125 0.70312 0.45312 1.1094 0.45312s0.79688-0.15625 1.1094-0.45312c0.60938-0.60938 0.60938-1.5938 0-2.2031l-3.0156-3.0156c-0.60938-0.60938-1.5938-0.60938-2.2031 0s-0.60938 1.5938 0 2.2031l3.0156 3.0156z"/>
  <path d="m59.062 18.969c0.40625 0 0.79688-0.15625 1.1094-0.45312l3.0156-3.0156c0.60938-0.60938 0.60938-1.5938 0-2.2031s-1.5938-0.60938-2.2031 0l-3.0156 3.0156c-0.60938 0.60938-0.60938 1.5938 0 2.2031 0.3125 0.3125 0.70312 0.45312 1.1094 0.45312z"/>
 </g>
</svg>