<svg xmlns="http://www.w3.org/2000/svg" xmlns:xlink="http://www.w3.org/1999/xlink" version="1.1" x="0px" y="0px" viewBox="0 0 72 90" style="enable-background:new 0 0 72 72;" xml:space="preserve"><path d="M38.84,61.58v0.28c0,4.26-3.5,7.85-7.85,7.85h-20.8c-4.35,0-7.94-3.5-7.94-7.85V10.14c0-4.35,3.59-7.85,7.94-7.85h51.63  c4.35,0,7.94,3.5,7.94,7.85v51.72c0,4.35-3.59,7.85-7.94,7.85h-19.2c-1.61,0-2.84-1.23-2.84-2.84c0-1.51,1.23-2.84,2.84-2.84h19.2  c1.23,0,2.27-0.95,2.27-2.17V10.14c0-1.23-1.04-2.17-2.27-2.17H10.19c-1.23,0-2.27,0.95-2.27,2.17v51.72c0,1.23,1.04,2.17,2.27,2.17  h20.8c1.42,0,2.17-1.13,2.17-2.46h-2.17c-0.28,0-0.57-0.19-0.76-0.38l-2.08-3.5c-0.09-0.09-0.19-0.28-0.19-0.47v-5.39  c0-0.47,0.19-0.95,0.47-1.32c-3.69-1.8-6.71-4.92-8.32-8.89c-0.19-0.38,0-0.95,0.38-1.04l2.93-1.23c-1.04-0.57-2.93-0.66-3.69-0.66  c-0.47,0-0.85-0.38-0.85-0.76v-5.77c0-0.47,0.38-0.85,0.85-0.85c1.04,0,3.88-0.09,4.35-1.23c0.47-1.13-1.51-3.22-2.17-3.88  c-0.38-0.38-0.38-0.85,0-1.23l4.07-4.07c0.28-0.28,0.85-0.28,1.13,0c0.66,0.66,2.84,2.65,3.88,2.27c1.13-0.47,1.23-3.4,1.23-4.35  c0-0.47,0.38-0.85,0.85-0.85h5.77c0.47,0,0.85,0.38,0.85,0.85c0,0.95,0.09,3.88,1.13,4.35c1.13,0.38,3.31-1.61,3.97-2.27  c0.28-0.28,0.85-0.28,1.13,0l4.07,4.07c0.38,0.38,0.38,0.85,0,1.23c-0.47,0.47-1.8,1.89-2.17,3.03l2.93-1.23  c0.38-0.19,0.95,0,1.04,0.47c1.99,5.11,1.89,10.78-1.32,15.79c-1.7,2.65-4.16,4.82-7,6.24c0.28,0.38,0.47,0.85,0.47,1.32v5.39  c0,0.19-0.09,0.28-0.19,0.47l-2.08,3.4c-0.19,0.28-0.47,0.47-0.76,0.47H38.84z M46.69,42.67c-0.66,0.85-1.99-0.09-1.42-0.95  c1.61-2.27,2.46-4.54,2.27-7.38c0-1.04,1.61-1.13,1.7-0.09C49.43,37.47,48.48,40.11,46.69,42.67L46.69,42.67z M43.66,46.35  c-0.76,0.85-1.99-0.28-1.23-1.13l1.13-1.32c0.76-0.85,1.99,0.28,1.32,1.04C44.42,45.41,44.04,45.88,43.66,46.35L43.66,46.35z   M30.33,58.08l1.13,1.8h8.98l1.13-1.8H30.33z M42.24,52.97v-1.13c0-0.28-0.28-0.57-0.57-0.57H30.23c-0.38,0-0.57,0.28-0.57,0.57  v1.13H42.24z M25.22,38.6l3.4-1.42c-0.28-0.66-0.38-1.42-0.38-2.17c0-4.26,3.5-7.66,7.66-7.66c2.93,0,5.48,1.61,6.81,3.97l3.4-1.42  c-0.09-1.51,1.13-3.21,2.17-4.26l-2.93-2.93c-1.23,1.13-3.31,2.74-5.11,1.99c-1.8-0.76-2.17-3.31-2.27-5.01h-4.07  c-0.09,1.7-0.47,4.26-2.27,5.01s-3.88-0.85-5.11-1.99l-2.93,2.93c1.13,1.23,2.74,3.31,1.99,5.11c-0.76,1.8-3.31,2.17-5.01,2.17v4.16  C22.01,37.18,24.18,37.37,25.22,38.6L25.22,38.6z M35.91,33.02c-1.04,0-1.99,0.95-1.99,1.99c0,1.13,0.95,1.99,1.99,1.99  c1.13,0,2.08-0.85,2.08-1.99C37.99,33.87,37.04,33.02,35.91,33.02L35.91,33.02z M39.59,34.44c0.28,2.17-1.42,4.26-3.69,4.26  c-1.23,0-2.27-0.57-2.93-1.51l-11.06,4.54c1.8,3.78,5.01,6.52,8.7,7.85h4.54v-6.9c-1.51-0.19-2.93-0.76-4.16-1.8  c-0.85-0.66,0.28-1.99,1.04-1.23c1.61,1.32,3.88,1.7,5.77,1.04c2.17-0.66,3.88-2.65,4.07-5.01c0.19-1.04,1.8-0.85,1.7,0.19  c-0.38,3.03-2.36,5.48-5.11,6.43c-0.57,0.19-1.13,0.28-1.7,0.38v6.9h4.54c3.21-1.13,5.96-3.4,7.85-6.34  c2.46-3.97,3.03-8.89,1.42-13.33L39.59,34.44z M35.91,31.32c1.23,0,2.36,0.66,3.03,1.61l2.17-0.95c-1.04-1.8-2.93-2.93-5.2-2.93  c-3.31,0-5.96,2.65-5.96,5.96c0,0.57,0.09,1.04,0.19,1.51l2.17-0.85C31.93,33.4,33.64,31.32,35.91,31.32L35.91,31.32z M34.77,61.58  c0,2.17-1.51,4.07-3.78,4.07h-20.8c-2.08,0-3.88-1.7-3.88-3.78V10.14c0-2.08,1.8-3.78,3.88-3.78h51.63c2.17,0,3.88,1.7,3.88,3.78  v51.72c0,2.08-1.7,3.78-3.88,3.78h-19.2c-0.66,0-1.23,0.57-1.23,1.23c0,0.66,0.57,1.23,1.23,1.23h19.2c3.5,0,6.34-2.84,6.34-6.24  V10.14c0-3.4-2.84-6.24-6.34-6.24H10.19c-3.5,0-6.34,2.84-6.34,6.24v51.72c0,3.4,2.84,6.24,6.34,6.24h20.8  c3.4,0,6.24-2.84,6.24-6.24v-0.28H34.77z M36,11.18c-0.95,0-1.61,0.76-1.61,1.7c0,0.95,0.66,1.61,1.61,1.61  c0.95,0,1.7-0.66,1.7-1.61C37.7,11.93,36.95,11.18,36,11.18L36,11.18z M36,9.57c1.89,0,3.31,1.42,3.31,3.31  c0,1.8-1.51,3.31-3.31,3.31s-3.31-1.51-3.31-3.31C32.69,10.99,34.2,9.57,36,9.57L36,9.57z M19.07,18.18c-0.66,0.57-0.66,1.61,0,2.27  c0.66,0.66,1.7,0.66,2.36,0c0.66-0.66,0.66-1.7,0-2.27C20.78,17.51,19.74,17.51,19.07,18.18L19.07,18.18z M17.94,16.95  c1.32-1.32,3.4-1.32,4.73,0c1.23,1.32,1.23,3.4,0,4.73c-1.32,1.32-3.4,1.32-4.73,0S16.62,18.27,17.94,16.95L17.94,16.95z   M12.08,35.01c0,0.95,0.66,1.61,1.61,1.61c0.95,0,1.7-0.76,1.7-1.61c0-0.95-0.76-1.7-1.7-1.7C12.74,33.31,12.08,34.06,12.08,35.01  L12.08,35.01z M10.37,35.01c0-1.89,1.51-3.31,3.31-3.31c1.89,0,3.31,1.42,3.31,3.31c0,1.8-1.42,3.31-3.31,3.31  C11.89,38.32,10.37,36.8,10.37,35.01L10.37,35.01z M18.98,51.93c0.66,0.57,1.7,0.57,2.36,0c0.66-0.66,0.66-1.7,0-2.36  c-0.66-0.66-1.7-0.66-2.36,0C18.32,50.23,18.32,51.27,18.98,51.93L18.98,51.93z M17.75,53.07c-1.23-1.32-1.23-3.4,0-4.73  c1.32-1.23,3.4-1.23,4.73,0c1.32,1.32,1.32,3.4,0,4.73C21.15,54.39,19.07,54.39,17.75,53.07L17.75,53.07z M52.74,52.03  c0.66-0.66,0.66-1.7,0-2.36c-0.66-0.66-1.7-0.66-2.36,0c-0.66,0.66-0.66,1.7,0,2.36C51.03,52.69,52.08,52.69,52.74,52.03  L52.74,52.03z M53.87,53.16c-1.23,1.32-3.4,1.32-4.63,0c-1.32-1.23-1.32-3.4,0-4.63c1.23-1.32,3.4-1.32,4.63,0  C55.2,49.76,55.2,51.93,53.87,53.16L53.87,53.16z M59.83,35.2c0-0.95-0.76-1.7-1.7-1.7c-0.95,0-1.7,0.76-1.7,1.7  c0,0.85,0.76,1.61,1.7,1.61C59.07,36.8,59.83,36.05,59.83,35.2L59.83,35.2z M61.44,35.2c0,1.8-1.51,3.31-3.31,3.31  c-1.8,0-3.31-1.51-3.31-3.31c0-1.89,1.51-3.31,3.31-3.31C59.92,31.89,61.44,33.31,61.44,35.2L61.44,35.2z M52.83,18.27  c-0.66-0.66-1.7-0.66-2.36,0c-0.57,0.66-0.57,1.7,0,2.36c0.66,0.66,1.7,0.66,2.36,0C53.49,19.97,53.49,18.93,52.83,18.27  L52.83,18.27z M54.06,17.04c1.32,1.32,1.32,3.4,0,4.73c-1.32,1.32-3.4,1.32-4.73,0s-1.32-3.4,0-4.73  C50.66,15.81,52.74,15.81,54.06,17.04L54.06,17.04z M42.24,56.38v-1.7H29.66v1.7H42.24z"/></svg>