<svg xmlns="http://www.w3.org/2000/svg" data-name="Layer 1" viewBox="0 0 95 118.75" x="0px" y="0px"><path d="M58.843,8.12l.695-.354,1.827-.931a2.008,2.008,0,0,1,2.363.374l1.45,1.451,1.451,1.45A2.008,2.008,0,0,1,67,12.473L66.072,14.3l-.354.7a1.975,1.975,0,0,0,0,1.851,20.033,20.033,0,0,1,1.229,2.964,1.982,1.982,0,0,0,1.307,1.311l.742.24L70.948,22a2.005,2.005,0,0,1,1.405,1.934v4.1a2.007,2.007,0,0,1-1.405,1.936L69,30.6l-.742.241a1.977,1.977,0,0,0-1.307,1.31,19.988,19.988,0,0,1-1.229,2.964,1.975,1.975,0,0,0,0,1.851l.354.7L67,39.493a2.006,2.006,0,0,1-.374,2.362l-1.451,1.45-1.45,1.45a2.01,2.01,0,0,1-2.363.375L59.538,44.2l-.695-.355a1.985,1.985,0,0,0-1.853,0,20.021,20.021,0,0,1-2.963,1.229,1.976,1.976,0,0,0-1.31,1.308l-.241.742-.635,1.949a2.007,2.007,0,0,1-1.935,1.407h-4.1a2.008,2.008,0,0,1-1.936-1.407l-.633-1.949-.242-.742a1.974,1.974,0,0,0-1.31-1.308,19.988,19.988,0,0,1-2.964-1.229,1.981,1.981,0,0,0-1.851,0l-.7.355-1.827.931a2.01,2.01,0,0,1-2.363-.375l-1.451-1.45-1.449-1.45a2.008,2.008,0,0,1-.375-2.362l.932-1.828.354-.7a1.978,1.978,0,0,0,0-1.851,19.772,19.772,0,0,1-1.228-2.964,1.978,1.978,0,0,0-1.308-1.31l-.741-.241-1.951-.634a2.006,2.006,0,0,1-1.406-1.936v-4.1A2,2,0,0,1,24.764,22l1.951-.635.741-.24a1.984,1.984,0,0,0,1.308-1.31,19.784,19.784,0,0,1,1.228-2.965,1.978,1.978,0,0,0,0-1.851l-.354-.7-.932-1.827a2.01,2.01,0,0,1,.375-2.363l1.449-1.45,1.451-1.451a2.008,2.008,0,0,1,2.363-.374l1.827.931.7.354a1.978,1.978,0,0,0,1.851,0,19.886,19.886,0,0,1,2.964-1.23,1.975,1.975,0,0,0,1.31-1.307l.242-.742.633-1.95a2.008,2.008,0,0,1,1.936-1.407h4.1a2.007,2.007,0,0,1,1.935,1.407l.635,1.95.241.742a1.977,1.977,0,0,0,1.31,1.307A19.918,19.918,0,0,1,56.99,8.12a1.982,1.982,0,0,0,1.853,0ZM10.017,51.4H3.789a1.752,1.752,0,0,0-1.744,1.744V74.7a1.752,1.752,0,0,0,1.744,1.744h6.228A1.753,1.753,0,0,0,11.762,74.7V53.147A1.753,1.753,0,0,0,10.017,51.4Zm65.3,36.46-5.483-8.37a9.4,9.4,0,0,1-4.105-.918,9.215,9.215,0,0,1-5.25-8.1,9.366,9.366,0,0,1,1.25-4.925,1.316,1.316,0,0,1,1.8-.479,1.3,1.3,0,0,1,.443.418h0l3.092,4.72,3.34.226L71.629,67.2l-3.086-4.708a1.319,1.319,0,0,1,1.013-2.038,9.389,9.389,0,0,1,4.959.83,9.218,9.218,0,0,1,5.327,8.167,9.385,9.385,0,0,1-.891,4.2l5.464,8.342a16,16,0,1,0-12.707,6.277,16.105,16.105,0,0,0,3.606-.408ZM49.9,82.018a23.793,23.793,0,0,1-2.074-9.749c0-.337.008-.674.021-1.009a5.151,5.151,0,0,1-1.026.076A5.292,5.292,0,0,1,45.2,71.03L41,69.546v0l-11.61-3.925a1.316,1.316,0,0,1,.835-2.5l11.651,3.939v0l4.2,1.484a2.647,2.647,0,0,0,.812.162,2.712,2.712,0,0,0,.824-.113l.409-.119a23.734,23.734,0,0,1,1.346-4.935c-.028-.027-.059-.053-.089-.08a3.593,3.593,0,0,0-.739-.481h0c-.033-.015-.095-.044-.191-.084l-.173-.072-.042-.015L22.58,52.824a2.462,2.462,0,0,0-1.478-.132l-6.7,1.292V74.5c5.629.294,10.612,2.406,15.485,4.472,6.528,2.769,12.849,5.447,20.009,3.046ZM86.732,57.245a21.25,21.25,0,1,1-15.024-6.222,21.185,21.185,0,0,1,15.024,6.222ZM71.708,53.627a18.643,18.643,0,1,1-13.182,5.461,18.583,18.583,0,0,1,13.182-5.461ZM47.856,18.918a4.733,4.733,0,1,0,4.732,4.733,4.732,4.732,0,0,0-4.732-4.733Zm0-6.98a14.046,14.046,0,1,0,9.93,4.114,14.007,14.007,0,0,0-9.93-4.114Zm8.064,5.981a11.4,11.4,0,0,0-17.91,13.82,13.979,13.979,0,0,1,5.219-3.254l-.106-.1a6.693,6.693,0,1,1,9.465,0l-.105.1A14.014,14.014,0,0,1,57.7,31.739a11.409,11.409,0,0,0-1.781-13.82ZM39.611,33.861c.06.062.119.124.181.185a11.4,11.4,0,0,0,16.128,0l.181-.185a11.47,11.47,0,0,0-3.276-2.385,11.4,11.4,0,0,0-13.214,2.385Zm8.245-3.518" style="" fill-rule="evenodd"/><text x="0" y="110" fill="#000000" font-size="5px" font-weight="bold" font-family="'Helvetica Neue', Helvetica, Arial-Unicode, Arial, Sans-serif">Created by feri ulan taufiq</text><text x="0" y="115" fill="#000000" font-size="5px" font-weight="bold" font-family="'Helvetica Neue', Helvetica, Arial-Unicode, Arial, Sans-serif">from the Noun Project</text></svg>