<svg xmlns="http://www.w3.org/2000/svg" xmlns:xlink="http://www.w3.org/1999/xlink" xmlns:serif="http://www.serif.com/" viewBox="0 0 97 121.25" version="1.1" xml:space="preserve" style="" x="0px" y="0px" fill-rule="evenodd" clip-rule="evenodd" stroke-linejoin="round" stroke-miterlimit="2"><path d="M28.129,62.997C28.635,62.997 29.045,63.408 29.045,63.914L29.045,92.238C29.045,92.744 28.635,93.154 28.129,93.154L14.839,93.154C14.333,93.154 13.923,92.744 13.923,92.238L13.923,63.914C13.923,63.408 14.333,62.997 14.839,62.997L28.129,62.997ZM54.86,38.727C55.103,38.727 55.336,38.824 55.507,38.996C55.679,39.167 55.776,39.401 55.776,39.644L55.776,92.238C55.776,92.481 55.679,92.714 55.507,92.886C55.336,93.058 55.103,93.154 54.86,93.154L41.57,93.154C41.327,93.154 41.094,93.058 40.922,92.886C40.75,92.714 40.653,92.481 40.653,92.238L40.653,39.644C40.653,39.401 40.75,39.167 40.922,38.996C41.094,38.824 41.327,38.727 41.57,38.727L54.86,38.727ZM81.59,54.707C82.096,54.707 82.506,55.118 82.506,55.624L82.506,92.238C82.506,92.744 82.096,93.154 81.59,93.154L68.3,93.154C67.794,93.154 67.384,92.744 67.384,92.238L67.384,55.624C67.384,55.118 67.794,54.707 68.3,54.707L81.59,54.707ZM48.215,34.635C42.138,34.635 37.182,29.679 37.182,23.602C37.182,17.526 42.138,12.569 48.215,12.569C54.291,12.569 59.247,17.526 59.247,23.602C59.247,29.679 54.291,34.635 48.215,34.635ZM46.749,16.928C46.597,16.972 46.448,17.023 46.302,17.08C44.66,17.726 43.487,19.151 43.581,21.077C43.699,23.564 45.893,24.667 47.99,25.008C48.473,25.088 48.992,25.199 49.449,25.407C49.851,25.59 50.217,25.852 50.278,26.36L50.278,26.362C50.333,26.815 50.024,27.081 49.675,27.252C49.262,27.454 48.774,27.547 48.325,27.557L48.322,27.557C47.362,27.581 46.344,27.2 46.1,26.218C45.904,25.433 45.108,24.954 44.323,25.15C43.538,25.345 43.059,26.141 43.254,26.926C43.701,28.719 45.093,29.873 46.749,30.302L46.749,30.585C46.749,31.394 47.405,32.051 48.215,32.051C49.024,32.051 49.681,31.394 49.681,30.585L49.681,30.324C51.682,29.854 53.478,28.397 53.189,26.01C52.885,23.481 50.591,22.465 48.464,22.115L48.461,22.115C48.02,22.043 47.551,21.935 47.147,21.738C46.823,21.58 46.53,21.358 46.51,20.939L46.51,20.935C46.481,20.369 46.893,19.998 47.376,19.808C48.312,19.44 49.625,19.656 50.113,20.82C50.426,21.566 51.286,21.917 52.032,21.604C52.778,21.291 53.13,20.431 52.816,19.685C52.184,18.177 50.995,17.28 49.681,16.913L49.681,16.623C49.681,15.814 49.024,15.157 48.215,15.157C47.405,15.157 46.749,15.814 46.749,16.623L46.749,16.928ZM46.749,5.198C46.749,4.389 47.405,3.732 48.215,3.732C49.024,3.732 49.681,4.389 49.681,5.198L49.681,8.477C49.681,9.286 49.024,9.943 48.215,9.943C47.405,9.943 46.749,9.286 46.749,8.477L46.749,5.198ZM37.742,8.397C37.337,7.696 37.578,6.799 38.279,6.394C38.979,5.99 39.876,6.23 40.281,6.931L41.921,9.771C42.325,10.471 42.085,11.368 41.384,11.773C40.683,12.178 39.786,11.937 39.381,11.236L37.742,8.397ZM31.541,15.67C30.841,15.266 30.6,14.369 31.005,13.668C31.409,12.967 32.307,12.727 33.007,13.131L35.847,14.771C36.548,15.175 36.788,16.073 36.384,16.773C35.979,17.474 35.082,17.714 34.381,17.31L31.541,15.67ZM56.148,6.931C56.553,6.23 57.45,5.99 58.151,6.394C58.851,6.799 59.092,7.696 58.687,8.397L57.048,11.236C56.643,11.937 55.746,12.178 55.045,11.773C54.344,11.368 54.104,10.471 54.509,9.771L56.148,6.931ZM63.422,13.131C64.123,12.727 65.02,12.967 65.424,13.668C65.829,14.369 65.588,15.266 64.888,15.67L62.048,17.31C61.347,17.714 60.45,17.474 60.045,16.773C59.641,16.073 59.881,15.175 60.582,14.771L63.422,13.131ZM74.945,50.796C68.869,50.796 63.912,45.84 63.912,39.764C63.912,33.687 68.869,28.731 74.945,28.731C81.022,28.731 85.978,33.687 85.978,39.764C85.978,45.84 81.022,50.796 74.945,50.796ZM73.479,33.09C73.327,33.134 73.178,33.184 73.033,33.242C71.391,33.888 70.217,35.312 70.312,37.239C70.429,39.726 72.623,40.828 74.721,41.17C75.204,41.249 75.723,41.361 76.18,41.568C76.582,41.751 76.948,42.013 77.009,42.522L77.009,42.523C77.064,42.976 76.754,43.242 76.405,43.413C75.993,43.615 75.504,43.709 75.056,43.719L75.053,43.719C74.093,43.743 73.074,43.361 72.83,42.38C72.635,41.594 71.839,41.116 71.053,41.311C70.268,41.507 69.79,42.303 69.985,43.088C70.431,44.88 71.824,46.034 73.479,46.463L73.479,46.747C73.479,47.556 74.136,48.213 74.945,48.213C75.754,48.213 76.411,47.556 76.411,46.747L76.411,46.485C78.412,46.016 80.209,44.558 79.92,42.171C79.615,39.642 77.322,38.627 75.194,38.277L75.192,38.276C74.751,38.204 74.282,38.097 73.878,37.9C73.554,37.741 73.26,37.519 73.24,37.1L73.24,37.097C73.212,36.53 73.624,36.16 74.106,35.97C75.043,35.601 76.355,35.817 76.844,36.981C77.157,37.727 78.016,38.079 78.763,37.766C79.509,37.453 79.86,36.593 79.547,35.847C78.914,34.338 77.725,33.442 76.411,33.075L76.411,32.784C76.411,31.975 75.754,31.318 74.945,31.318C74.136,31.318 73.479,31.975 73.479,32.784L73.479,33.09ZM21.484,58.899C15.407,58.899 10.451,53.943 10.451,47.867C10.451,41.79 15.407,36.834 21.484,36.834C27.561,36.834 32.517,41.79 32.517,47.867C32.517,53.943 27.561,58.899 21.484,58.899ZM20.018,41.193C19.866,41.237 19.717,41.287 19.572,41.345C17.93,41.991 16.756,43.415 16.851,45.342C16.968,47.829 19.162,48.931 21.259,49.273C21.742,49.352 22.262,49.464 22.719,49.671C23.121,49.854 23.487,50.116 23.548,50.625L23.548,50.626C23.603,51.079 23.293,51.345 22.944,51.516C22.532,51.718 22.043,51.812 21.595,51.822L21.591,51.822C20.631,51.846 19.613,51.464 19.369,50.483C19.174,49.697 18.377,49.219 17.592,49.414C16.807,49.61 16.328,50.406 16.524,51.191C16.97,52.983 18.363,54.137 20.018,54.566L20.018,54.85C20.018,55.659 20.675,56.316 21.484,56.316C22.293,56.316 22.95,55.659 22.95,54.85L22.95,54.588C24.951,54.119 26.748,52.661 26.459,50.274C26.154,47.745 23.861,46.73 21.733,46.38L21.731,46.379C21.289,46.307 20.821,46.2 20.417,46.003C20.093,45.844 19.799,45.622 19.779,45.203L19.779,45.2C19.751,44.633 20.163,44.263 20.645,44.073C21.582,43.704 22.894,43.92 23.382,45.084C23.696,45.83 24.555,46.182 25.301,45.869C26.048,45.556 26.399,44.696 26.086,43.95C25.453,42.441 24.264,41.545 22.95,41.178L22.95,40.887C22.95,40.078 22.293,39.421 21.484,39.421C20.675,39.421 20.018,40.078 20.018,40.887L20.018,41.193Z"/><text x="0" y="112" fill="#000000" font-size="5px" font-weight="bold" font-family="'Helvetica Neue', Helvetica, Arial-Unicode, Arial, Sans-serif">Created by Eko Purnomo</text><text x="0" y="117" fill="#000000" font-size="5px" font-weight="bold" font-family="'Helvetica Neue', Helvetica, Arial-Unicode, Arial, Sans-serif">from the Noun Project</text></svg>