<svg xmlns="http://www.w3.org/2000/svg" xmlns:xlink="http://www.w3.org/1999/xlink" version="1.1" x="0px" y="0px" viewBox="0 0 500 625" style="enable-background:new 0 0 500 500;" xml:space="preserve">
	.st0{fill-rule:evenodd;clip-rule:evenodd;}
</style><path class="st0" d="M371.9,94.06C340.7,62.87,297.6,43.57,250,43.57s-90.7,19.3-121.9,50.49c-31.2,31.2-50.49,74.29-50.49,121.9  c0,47.6,19.3,90.7,50.49,121.9c31.2,31.2,74.29,50.49,121.9,50.49s90.7-19.3,121.9-50.49c31.2-31.2,50.49-74.29,50.49-121.9  C422.39,168.36,403.09,125.26,371.9,94.06L371.9,94.06z M250,33c50.52,0,96.26,20.48,129.37,53.59  c33.11,33.11,53.59,78.85,53.59,129.38c0,50.52-20.48,96.26-53.59,129.37c-33.11,33.11-78.85,53.59-129.37,53.59  c-50.52,0-96.26-20.48-129.37-53.59c-33.11-33.11-53.59-78.85-53.59-129.37c0-50.52,20.48-96.26,53.59-129.38  C153.74,53.47,199.48,33,250,33L250,33z M243.64,3.38c0.59-0.89,1.32-1.6,2.12-2.14C247.01,0.42,248.49,0,250,0  c1.51,0,2.99,0.41,4.23,1.24c0.8,0.54,1.53,1.25,2.12,2.14l14.73,22.09c1.62,2.42,4.89,3.07,7.31,1.45c0.23-0.15,0.44-0.32,0.64-0.5  l19.84-17.44c0.79-0.7,1.68-1.19,2.6-1.51c1.44-0.49,2.98-0.51,4.42-0.12c1.45,0.39,2.77,1.17,3.76,2.3  c0.63,0.72,1.14,1.59,1.49,2.61l8.51,25.15c0.94,2.76,3.93,4.24,6.69,3.31c0.29-0.1,0.56-0.22,0.81-0.35l23.63-11.68  c0.95-0.47,1.92-0.72,2.88-0.78c1.54-0.1,3.04,0.27,4.33,1.02c1.28,0.74,2.34,1.84,3.02,3.22c0.42,0.86,0.69,1.83,0.76,2.88  l1.71,26.49c0.18,2.91,2.69,5.12,5.6,4.94c0.24-0.01,0.47-0.05,0.7-0.09l0,0.01l26.03-5.2c1.04-0.21,2.05-0.2,2.99-0.01  c1.49,0.3,2.83,1.05,3.88,2.1c1.05,1.05,1.8,2.4,2.1,3.88c0.19,0.94,0.2,1.95-0.01,2.99l-5.2,26.03c-0.57,2.86,1.29,5.65,4.15,6.22  c0.34,0.07,0.67,0.1,1.01,0.1l26.19,1.69c1.06,0.07,2.03,0.34,2.88,0.76c1.36,0.67,2.47,1.75,3.22,3.04  c0.74,1.28,1.11,2.78,1.02,4.31c-0.06,0.96-0.31,1.93-0.78,2.88l-11.77,23.8c-1.29,2.61-0.22,5.78,2.4,7.07  c0.21,0.1,0.42,0.19,0.64,0.27l25.15,8.51c1.02,0.34,1.89,0.86,2.61,1.49c1.13,0.99,1.91,2.31,2.3,3.76  c0.39,1.44,0.36,2.99-0.12,4.42c-0.31,0.92-0.81,1.81-1.51,2.6l-17.52,19.94c-1.92,2.19-1.69,5.52,0.5,7.44  c0.17,0.15,0.35,0.29,0.54,0.41l22.09,14.73c0.89,0.59,1.6,1.31,2.13,2.11l-0.01,0.01c0.84,1.26,1.26,2.75,1.26,4.23  c0,1.49-0.42,2.97-1.26,4.23c-0.06,0.09-0.12,0.18-0.17,0.27c-0.51,0.7-1.16,1.33-1.95,1.85l-22.09,14.73  c-2.42,1.62-3.07,4.89-1.45,7.31c0.15,0.23,0.32,0.44,0.5,0.64l17.44,19.85c0.7,0.79,1.19,1.68,1.51,2.6  c0.49,1.44,0.51,2.98,0.12,4.42c-0.39,1.45-1.17,2.77-2.3,3.76c-0.72,0.63-1.59,1.14-2.61,1.49l-25.15,8.51  c-2.76,0.94-4.24,3.93-3.31,6.69c0.1,0.29,0.22,0.56,0.35,0.81l11.68,23.63c0.47,0.95,0.72,1.92,0.78,2.88  c0.1,1.53-0.28,3.02-1.02,4.31l-0.13,0.23c-0.73,1.18-1.79,2.17-3.09,2.81c-0.86,0.42-1.83,0.69-2.88,0.76l-26.49,1.71  c-2.91,0.18-5.12,2.69-4.94,5.6c0.02,0.24,0.05,0.47,0.09,0.7l-0.01,0l5.2,26.03c0.21,1.04,0.2,2.05,0.01,2.99  c-0.3,1.49-1.05,2.83-2.1,3.88c-1.05,1.05-2.4,1.8-3.88,2.1c-0.94,0.19-1.95,0.2-2.99-0.01l-26.03-5.2  c-2.86-0.57-5.65,1.29-6.22,4.15c-0.07,0.34-0.1,0.67-0.1,1.01l-1.69,26.19c-0.07,1.06-0.34,2.03-0.76,2.88  c-0.68,1.37-1.75,2.48-3.02,3.22c-1.29,0.74-2.79,1.12-4.33,1.02c-0.96-0.06-1.93-0.31-2.88-0.78l-23.8-11.77  c-2.61-1.29-5.78-0.22-7.07,2.4c-0.1,0.21-0.19,0.42-0.27,0.64l-8.51,25.15c-0.34,1.02-0.86,1.89-1.49,2.61  c-0.99,1.13-2.31,1.91-3.76,2.3c-1.44,0.39-2.99,0.36-4.42-0.12c-0.92-0.31-1.81-0.81-2.6-1.5l-19.94-17.52  c-2.19-1.92-5.52-1.69-7.44,0.5c-0.15,0.17-0.29,0.35-0.41,0.54l-14.73,22.09c-0.59,0.89-1.32,1.6-2.12,2.14  c-1.24,0.83-2.73,1.24-4.23,1.24c-1.49,0-2.97-0.42-4.23-1.26c-0.09-0.06-0.18-0.11-0.27-0.17c-0.7-0.51-1.33-1.16-1.85-1.95  l-14.73-22.09c-1.62-2.42-4.89-3.07-7.31-1.45c-0.23,0.15-0.44,0.32-0.64,0.5l-19.86,17.45l-0.01-0.01c-0.8,0.7-1.68,1.2-2.58,1.51  c-1.44,0.49-2.98,0.51-4.42,0.12c-1.43-0.38-2.76-1.18-3.76-2.32l-0.19-0.2c-0.54-0.67-0.99-1.47-1.3-2.39l-8.51-25.15  c-0.94-2.76-3.93-4.24-6.69-3.31c-0.29,0.1-0.56,0.22-0.81,0.35l-23.63,11.68c-0.95,0.47-1.92,0.72-2.88,0.78  c-1.53,0.1-3.03-0.27-4.31-1.01l0.01-0.01c-1.29-0.75-2.37-1.86-3.04-3.22c-0.42-0.86-0.69-1.83-0.76-2.88l-1.71-26.49  c-0.18-2.91-2.69-5.12-5.6-4.94c-0.24,0.02-0.47,0.05-0.7,0.09l0-0.01l-26.03,5.2c-1.04,0.21-2.05,0.2-2.99,0.01  c-1.49-0.3-2.83-1.05-3.88-2.1c-1.05-1.05-1.8-2.4-2.1-3.88c-0.19-0.94-0.2-1.95,0.01-2.99l5.2-26.03c0.57-2.86-1.29-5.65-4.15-6.22  c-0.34-0.07-0.67-0.1-1.01-0.1l-26.19-1.69c-1.06-0.07-2.03-0.34-2.88-0.76c-1.36-0.67-2.47-1.75-3.22-3.04  c-0.74-1.28-1.11-2.78-1.02-4.31c0.06-0.96,0.31-1.93,0.78-2.88l11.77-23.8c1.29-2.61,0.22-5.78-2.4-7.07  c-0.21-0.1-0.42-0.19-0.64-0.27l-25.15-8.51c-1.02-0.34-1.89-0.86-2.61-1.49c-1.13-0.99-1.91-2.31-2.3-3.76  c-0.39-1.44-0.36-2.99,0.12-4.42c0.31-0.92,0.81-1.81,1.51-2.6l17.52-19.94c1.92-2.19,1.69-5.52-0.5-7.44  c-0.17-0.15-0.35-0.29-0.54-0.41l-22.09-14.73c-0.89-0.59-1.6-1.31-2.13-2.11l0.01-0.01c-0.84-1.26-1.26-2.75-1.26-4.23h-0.02  c0-1.47,0.43-2.95,1.29-4.23c0.06-0.09,0.11-0.18,0.17-0.27c0.51-0.7,1.16-1.33,1.95-1.85l22.09-14.73  c2.42-1.62,3.07-4.89,1.45-7.31c-0.15-0.23-0.32-0.44-0.5-0.64l-17.44-19.85c-0.7-0.79-1.19-1.68-1.51-2.6  c-0.49-1.44-0.51-2.98-0.12-4.42c0.39-1.45,1.17-2.77,2.3-3.76c0.72-0.63,1.59-1.14,2.61-1.49l25.15-8.51  c2.76-0.94,4.24-3.93,3.31-6.69c-0.1-0.29-0.22-0.56-0.35-0.81l-11.68-23.63c-0.47-0.95-0.72-1.92-0.78-2.88  c-0.1-1.53,0.28-3.02,1.02-4.31l0.13-0.23c0.73-1.18,1.79-2.17,3.09-2.81c0.86-0.42,1.83-0.69,2.88-0.76l26.49-1.71  c2.91-0.18,5.12-2.69,4.94-5.6c-0.01-0.24-0.05-0.47-0.09-0.7l0.01,0l-5.2-26.03c-0.21-1.04-0.2-2.05-0.01-2.99  c0.3-1.49,1.05-2.83,2.1-3.88c1.05-1.05,2.4-1.8,3.88-2.1c0.94-0.19,1.95-0.2,2.99,0.01l26.03,5.2c2.86,0.57,5.65-1.29,6.22-4.15  c0.07-0.34,0.1-0.67,0.1-1.01l1.69-26.19c0.07-1.06,0.34-2.03,0.76-2.88c0.68-1.37,1.75-2.48,3.02-3.22l0.02-0.01l0.01,0.01  c1.28-0.74,2.78-1.11,4.31-1.02c0.96,0.06,1.93,0.31,2.88,0.78l23.8,11.76c2.61,1.29,5.78,0.22,7.07-2.4  c0.1-0.21,0.19-0.42,0.27-0.64l8.51-25.15c0.35-1.02,0.86-1.89,1.49-2.61c0.99-1.13,2.31-1.91,3.76-2.3  c1.44-0.39,2.99-0.36,4.42,0.12c0.92,0.31,1.81,0.81,2.6,1.51l19.94,17.52c2.19,1.92,5.52,1.69,7.44-0.5  c0.15-0.17,0.29-0.35,0.41-0.54L243.64,3.38L243.64,3.38z M176.99,417.53L125.02,500l-38.41-43.2c-1.27-1.43-3.15-2-4.9-1.68  l-66.53,9.68l71.25-113.06l-1.6,7.99c-0.49,2.45-0.46,4.86-0.01,7.12c0.72,3.59,2.5,6.8,4.99,9.3c2.49,2.49,5.71,4.27,9.3,4.99  c2.27,0.45,4.67,0.48,7.12-0.01l20.12-4.02l1.32,20.46c0.16,2.5,0.81,4.82,1.84,6.89c1.62,3.28,4.17,5.92,7.22,7.68l0.01-0.01  l0.02,0.01c3.06,1.76,6.61,2.66,10.24,2.42c2.31-0.15,4.64-0.75,6.89-1.86l18.4-9.09L176.99,417.53L176.99,417.53z M413.57,351.73  l71.25,113.06l-66.53-9.68c-1.75-0.32-3.63,0.25-4.9,1.68L374.98,500l-51.97-82.47l4.71-13.93l18.4,9.09  c2.24,1.11,4.58,1.71,6.89,1.86c3.62,0.23,7.18-0.66,10.24-2.42c3.07-1.77,5.62-4.41,7.24-7.68c1.03-2.07,1.67-4.39,1.84-6.89  l1.32-20.46l20.12,4.02c2.45,0.49,4.86,0.46,7.12,0.01c3.59-0.72,6.8-2.5,9.3-4.99c2.49-2.49,4.27-5.71,4.99-9.3  c0.45-2.27,0.48-4.67-0.01-7.12L413.57,351.73L413.57,351.73z M353.69,112.27c26.54,26.54,42.95,63.2,42.95,103.69  c0,40.49-16.41,77.15-42.95,103.69c-26.54,26.54-63.2,42.95-103.69,42.95c-40.49,0-77.15-16.41-103.69-42.95  c-26.54-26.54-42.95-63.2-42.95-103.69c0-40.49,16.41-77.15,42.95-103.69c26.54-26.54,63.2-42.95,103.69-42.95  C290.49,69.32,327.15,85.73,353.69,112.27L353.69,112.27z M250,58.74c43.41,0,82.72,17.6,111.17,46.05  c28.45,28.45,46.05,67.75,46.05,111.17c0,43.41-17.6,82.72-46.05,111.17c-28.45,28.45-67.75,46.05-111.17,46.05  c-43.41,0-82.72-17.6-111.17-46.05c-28.45-28.45-46.05-67.75-46.05-111.17c0-43.41,17.6-82.72,46.05-111.17  C167.28,76.34,206.59,58.74,250,58.74L250,58.74z M299.44,284.49H198.87c-2.53,6.27-6.82,10.37-11.63,12.4  c-3.1,1.31-6.38,1.75-9.55,1.35c-3.19-0.4-6.29-1.63-8.98-3.66c-5.06-3.82-8.67-10.42-8.67-19.49V172.32  c0-10.05,4.21-16.63,9.9-20.09c2.72-1.65,5.74-2.56,8.79-2.77c3.01-0.2,6.05,0.27,8.87,1.37c5.01,1.96,9.31,5.88,11.39,11.49  l0.47,0.02c5.44,0.29,12.34,0.65,13.46-2.03l20.01-47.9c1.03-2.47,2.44-4.62,4.14-6.44c3.05-3.29,6.99-5.45,11.19-6.36  c4.2-0.91,8.68-0.57,12.81,1.16c2.29,0.96,4.47,2.34,6.43,4.16c16.92,15.72,12.29,30.33,2.85,57.24h43.49  c1.78,0,3.56,0.19,5.34,0.56c6.03,1.24,11.22,4.52,14.9,9.03c3.68,4.52,5.86,10.25,5.86,16.39c0,1.7-0.18,3.48-0.56,5.33  l-14.41,70.17c-1.26,6.11-4.52,11.32-9.03,15C311.41,282.34,305.66,284.49,299.44,284.49L299.44,284.49z M189.78,278.49  c-1.29,4.65-3.82,7.5-6.63,8.68c-1.33,0.56-2.77,0.75-4.18,0.57c-1.38-0.17-2.72-0.71-3.9-1.6c-2.6-1.96-4.46-5.67-4.46-11.06  V172.32c0-5.83,2.05-9.4,4.82-11.09c1.21-0.74,2.59-1.14,4-1.24c1.46-0.1,2.95,0.13,4.33,0.67c2.86,1.12,5.23,3.62,5.84,7.27  L189.78,278.49L189.78,278.49z M200.15,172.94c8.49,0.43,18.72,0.53,22.53-8.58l20.01-47.9c0.53-1.28,1.25-2.38,2.11-3.3  c1.54-1.66,3.55-2.76,5.7-3.22c2.15-0.47,4.43-0.29,6.53,0.58c1.16,0.49,2.28,1.19,3.29,2.13c12.26,11.39,7.81,24.04-0.57,47.9  l-1.67,4.77c-0.29,0.65-0.45,1.38-0.45,2.14c0,2.92,2.37,5.29,5.29,5.29h50.93c1.17,0,2.25,0.11,3.23,0.31  c3.57,0.73,6.64,2.68,8.82,5.35c2.18,2.67,3.46,6.08,3.46,9.74c0,1.11-0.1,2.19-0.31,3.23l-14.41,70.17  c-0.75,3.65-2.68,6.75-5.35,8.93c-2.66,2.17-6.09,3.44-9.84,3.44h-99.13L200.15,172.94z"/></svg>